<?xml version="1.0" encoding="iso-8859-1"?>
<!-- Generator: Adobe Illustrator 19.0.0, SVG Export Plug-In . SVG Version: 6.00 Build 0)  -->
<svg xmlns="http://www.w3.org/2000/svg" xmlns:xlink="http://www.w3.org/1999/xlink" version="1.1" id="Layer_1" x="0px" y="0px" viewBox="0 0 494.72 494.72" style="enable-background:new 0 0 494.72 494.72;" xml:space="preserve" width="512" height="512">
<g>
	<path d="M237.32,184.9l-1.12-35.04c29.082,0,44.95-21.593,44.95-43.45V15c0-8.29-6.72-15-15-15h-40.12c-8.28,0-15,6.71-15,15v24.54   h-10.11V15c0-8.29-6.72-15-15-15H145.8c-8.28,0-15,6.71-15,15v24.54h-10.12V15c0-8.29-6.71-15-15-15H65.56c-8.29,0-15,6.71-15,15   v91.41c0,22.214,16.168,43.45,44.95,43.45l-5.48,172.11c-14.2,4.79-24.46,18.24-24.46,34.03v36.86   c-20.35,2.96-36.03,20.53-36.03,41.69v45.17c0,8.29,6.72,15,15,15h242.63c8.29,0,15-6.71,15-15v-21.87   c87.157,8.689,163.01-60.137,163.01-147.67C465.18,193.173,335.413,122.407,237.32,184.9z M316.78,428.57   c-66.314,0-119.155-54.95-118.647-118.39c0.488-60.917,48.929-118.4,118.647-118.4c65.29,0,118.4,53.11,118.4,118.4   C435.18,375.46,382.07,428.57,316.78,428.57z M272.17,464.72H59.54v-30.17c0-6.69,5.45-12.14,12.14-12.14   c4.549,0,140.904,0,148.12,0c15.11,13.07,32.88,23.15,52.37,29.31V464.72z M80.56,106.41V30h10.12v24.54c0,8.29,6.72,15,15,15   h40.12c8.28,0,15-6.71,15-15V30h10.12v24.54c0,8.29,6.71,15,15,15h40.11c8.29,0,15-6.71,15-15V30h10.12v76.41   c0,7.42-5.38,13.45-11.99,13.45c-3.012,0-139.504,0-146.61,0C85.94,119.86,80.56,113.83,80.56,106.41z M125.52,149.86h80.67   l1.89,59.4c-27.503,29.603-42.143,69.339-39.36,110.84H120.1L125.52,149.86z M95.57,356c0-3.25,2.65-5.9,5.9-5.9   c7.286,0,64.557,0,72.38,0c4.075,14.6,10.52,28.943,19.46,42.31c-11.156,0-88.292,0-97.74,0V356z"/>
	<path d="M403.21,256.02l-12.66,5.35c-33.832-57.327-117.159-57.085-150.78,0.44c-10.808,17.795,15.458,33.441,25.56,15.7   c20.942-36.756,73.225-39.043,97.21-4.29l-10.83,4.58c-4.95,2.09-5.77,8.76-1.49,12l44.61,33.7c4.29,3.24,10.47,0.62,11.13-4.71   l6.89-55.48C413.52,257.98,408.16,253.93,403.21,256.02z"/>
	<path d="M366.52,343.72c-21.332,35.906-72.925,37.881-96.7,3.4l10.83-4.58c4.95-2.09,5.77-8.75,1.49-11.99   c-6.986-5.277-38.966-29.434-44.61-33.7c-4.29-3.24-10.47-0.63-11.13,4.7c-0.037,0.296-4.978,40.065-6.89,55.49   c-0.645,5.214,4.515,9.372,9.64,7.29c8.404-3.559,5.525-2.34,12.66-5.36c32.177,56.052,116.041,58.107,150.5,0.06   C402.434,341.988,376.651,326.644,366.52,343.72z"/>
</g>















</svg>
